<svg viewBox="0 0 29.992 18.9918" xmlns="http://www.w3.org/2000/svg" xmlns:xlink="http://www.w3.org/1999/xlink" width="29.992004" height="18.991760" fill="none" customFrame="#000000">
	<path id="Down icon" d="M22.9694 0.336841L14.9649 5.52804L7.01215 0.370444C6.32399 -0.0760093 5.20821 -0.0760093 4.52009 0.370444C3.83183 0.81669 3.83183 1.54002 4.52009 1.98672L13.2425 7.64353C13.6962 7.9377 14.3357 8.03795 14.916 7.94427C15.5248 8.06672 16.2151 7.97155 16.6972 7.65878L25.4784 1.96393C26.1713 1.5146 26.1713 0.786192 25.4784 0.336841C24.7856 -0.11228 23.6623 -0.11228 22.9694 0.336841ZM25.8622 8.4606L14.9469 15.5984L4.10213 8.5066C3.16373 7.89296 1.64223 7.89296 0.703825 8.5066C-0.234609 9.12047 -0.234609 10.1154 0.703825 10.7288L12.5981 18.5073C13.2168 18.9117 14.0888 19.0495 14.8801 18.9208C15.7103 19.089 16.6517 18.9582 17.3089 18.5284L29.2834 10.6978C30.2282 10.08 30.2282 9.07824 29.2834 8.4606C28.3387 7.84275 26.8069 7.84275 25.8622 8.4606Z" fill="rgb(255,255,255)" fill-rule="evenodd" />
</svg>
